#!OML:ASF F:\VICON\USERDATA\INSTALL\rory3\rory3.ASF
:FULLY-SPECIFIED
:DEGREES
3984
root 7.04839 17.7105 1.24526 -196.64 254.709 -158.898
lowerback 3.29601 2.55612 -0.597253
upperback 0.860737 3.39027 3.95936
thorax -1.23764 1.68253 4.26235
lowerneck -20.3663 9.39163 -2.00145
upperneck 29.7821 13.427 2.10102
head 13.0415 5.86613 3.36618
rclavicle 9.00495e-014 5.88403e-014
rhumerus -17.7754 -22.4289 -60.2276
rradius 58.1182
rwrist 24.0971
rhand -29.2969 -12.5847
rfingers 7.12502
rthumb -2.63848 -42.5482
lclavicle 9.00495e-014 5.88403e-014
lhumerus -12.505 -49.0442 99.5001
lradius 66.5419
lwrist -2.71946
lhand -8.43653 28.1788
lfingers 7.12502
lthumb 17.4888 1137.41
rfemur -23.1765 -15.1774 11.1663
rtibia 53.4386
rfoot -25.6692 -17.8713
rtoes 10.0622
lfemur -9.76976 1.05182 -27.1621
ltibia 23.1385
lfoot -13.7087 -1.90273
ltoes -8.59663
3985
root 7.04081 17.7134 1.27584 -196.759 254.59 -158.847
lowerback 3.3015 2.45573 -0.789123
upperback 0.899309 3.24955 3.97527
thorax -1.20146 1.61213 4.39506
lowerneck -20.3656 9.40255 -2.10363
upperneck 29.6234 13.4567 2.14791
head 12.9618 5.8841 3.39399
rclavicle 4.03533e-014 7.31528e-014
rhumerus -18.3735 -22.1797 -60.6635
rradius 58.4577
rwrist 24.1677
rhand -29.5891 -12.1878
rfingers 7.12502
rthumb -2.92066 -42.1475
lclavicle 4.03533e-014 7.31528e-014
lhumerus -13.5872 -48.056 99.9436
lradius 66.6963
lwrist -2.4906
lhand -8.40976 27.8299
lfingers 7.12502
lthumb 17.5145 1137.06
rfemur -23.7501 -14.9843 10.7994
rtibia 54.5892
rfoot -24.6974 -18.241
rtoes 11.3888
lfemur -9.50959 1.49237 -27.309
ltibia 22.847
lfoot -13.5967 -2.40246
ltoes -8.49911
3986
root 7.03305 17.7198 1.30421 -196.879 254.398 -158.823
lowerback 3.31058 2.14405 -1.17516
upperback 0.963029 2.8186 4.22336
thorax -1.13631 1.39477 4.89548
lowerneck -20.3033 9.56594 -2.60163
upperneck 29.518 13.8769 2.0985
head 12.8554 6.01531 3.50288
rclavicle -5.66536e-014 1.59028e-014
rhumerus -18.5797 -21.1134 -61.111
rradius 58.6352
rwrist 24.1977
rhand -29.9492 -11.7404
rfingers 7.12502
rthumb -3.26837 -41.6951
lclavicle -5.66536e-014 1.59028e-014
lhumerus -14.6067 -46.2697 100.443
lradius 66.7931
lwrist -2.31439
lhand -8.23286 27.5175
lfingers 7.12502
lthumb 17.6848 1136.73
rfemur -24.236 -14.8192 10.3986
rtibia 55.6976
rfoot -23.8621 -18.3849
rtoes 12.6194
lfemur -9.18019 1.7329 -27.46
ltibia 22.5064
lfoot -13.4691 -2.83665
ltoes -8.29765
3987
root 7.02746 17.7258 1.32639 -197.317 254.19 -158.498
lowerback 3.39523 1.93786 -1.66586
upperback 1.0524 2.52561 4.3697
thorax -1.09175 1.2467 5.34182
lowerneck -20.3415 9.63339 -3.03599
upperneck 29.3867 14.1054 2.14927
head 12.7597 6.08457 3.61372
rclavicle 7.95139e-016 4.6118e-014
rhumerus -18.833 -20.4373 -61.5462
rradius 58.6328
rwrist 24.3444
rhand -30.2264 -11.0823
rfingers 7.12502
rthumb -3.5361 -41.0327
lclavicle 7.95139e-016 4.6118e-014
lhumerus -15.525 -44.8162 100.807
lradius 66.8575
lwrist -2.11203
lhand -8.06642 27.1961
lfingers 7.12502
lthumb 17.8449 1136.4
rfemur -24.6921 -14.652 9.94052
rtibia 56.7401
rfoot -22.9003 -18.5978
rtoes 12.1605
lfemur -8.82058 1.62797 -27.6787
ltibia 22.1769
lfoot -13.3874 -2.93272
ltoes -8.03191
3988
root 7.02103 17.727 1.34674 -197.804 254.201 -158.183
lowerback 3.57828 2.02254 -1.89209
upperback 1.14704 2.63005 4.27041
thorax -1.11318 1.29903 5.35685
lowerneck -20.4774 9.52603 -3.05041
upperneck 29.2675 13.9168 2.27337
head 12.7318 6.02312 3.63485
rclavicle -3.83654e-014 -3.97569e-014
rhumerus -19.5425 -20.4728 -61.9377
rradius 58.6266
rwrist 24.5097
rhand -30.1484 -10.4257
rfingers 7.12502
rthumb -3.46076 -40.3774
lclavicle -3.83654e-014 -3.97569e-014
lhumerus -16.5409 -44.3013 101.081
lradius 66.8512
lwrist -1.69941
lhand -8.44244 27.0875
lfingers 7.12502
lthumb 17.4831 1136.32
rfemur -25.1523 -14.4925 9.55993
rtibia 57.6864
rfoot -21.4458 -18.9152
rtoes 14.8263
lfemur -8.43852 1.62355 -27.8261
ltibia 21.8948
lfoot -13.3099 -2.94679
ltoes -7.55384
3989
root 7.01505 17.7274 1.36974 -197.974 254.434 -158.176
lowerback 3.7561 2.07143 -1.97605
upperback 1.21046 2.69013 4.29783
thorax -1.15899 1.32855 5.42547
lowerneck -20.5665 9.51926 -3.17265
upperneck 29.2455 13.936 2.32808
head 12.7245 6.02646 3.68004
rclavicle 3.77691e-015 -1.59028e-015
rhumerus -20.0931 -19.7788 -62.2237
rradius 58.5833
rwrist 24.4509
rhand -30.0423 -10.6334
rfingers 7.12502
rthumb -3.35826 -40.5867
lclavicle 3.77691e-015 -1.59028e-015
lhumerus -17.6044 -43.3839 101.431
lradius 66.6783
lwrist -1.19416
lhand -9.34533 26.9305
lfingers 7.12502
lthumb 16.614 1136.24
rfemur -25.6585 -14.241 9.3712
rtibia 58.479
rfoot -19.7308 -19.2748
rtoes 20.0289
lfemur -8.10227 1.94024 -27.8306
ltibia 21.6126
lfoot -13.2694 -3.06374
ltoes -7.37377
3990
root 7.00798 17.7319 1.39553 -197.569 254.335 -158.641
lowerback 3.79227 1.95728 -2.05733
upperback 1.22792 2.53362 4.39817
thorax -1.15212 1.24909 5.58539
lowerneck -20.5707 9.53254 -3.31622
upperneck 29.1329 14.0453 2.19343
head 12.6772 6.04557 3.6621
rclavicle 3.39922e-014 0
rhumerus -20.565 -19.0631 -62.501
rradius 58.5207
rwrist 24.2704
rhand -29.8713 -10.4704
rfingers 7.12502
rthumb -3.19319 -40.4262
lclavicle 3.39922e-014 0
lhumerus -18.6242 -42.2411 101.881
lradius 66.3312
lwrist -0.657894
lhand -10.4003 27.0169
lfingers 7.12502
lthumb 15.5981 1136.41
rfemur -26.0955 -14.0708 9.21836
rtibia 59.1077
rfoot -18.5931 -19.3567
rtoes 22.8154
lfemur -7.9048 2.12685 -27.8041
ltibia 21.3874
lfoot -13.2267 -3.30394
ltoes -7.16966
3991
root 6.98676 17.7419 1.4128 -196.807 253.702 -159.492
lowerback 3.77674 1.88342 -2.23646
upperback 1.23801 2.43046 4.2688
thorax -1.12305 1.1984 5.558
lowerneck -20.7748 9.36315 -2.87354
upperneck 29.0718 13.6937 2.07429
head 12.7554 5.91862 3.51212
rclavicle -3.37934e-015 2.8625e-014
rhumerus -21.5719 -19.3476 -62.8815
rradius 58.4701
rwrist 23.6905
rhand -29.8643 -9.26975
rfingers 7.12502
rthumb -3.18637 -39.2257
lclavicle -3.37934e-015 2.8625e-014
lhumerus -19.6859 -42.0555 102.195
lradius 65.8449
lwrist -0.0910312
lhand -11.6765 27.4777
lfingers 7.12502
lthumb 14.3688 1136.96
rfemur -26.165 -14.1826 9.02134
rtibia 59.5471
rfoot -18.197 -19.0546
rtoes 24.2706
lfemur -7.63 2.05381 -27.7668
ltibia 21.1833
lfoot -13.175 -3.81948
ltoes -6.49345
3992
root 6.97162 17.7467 1.42941 -196.625 253.558 -159.782
lowerback 4.06759 2.30743 -2.21028
upperback 1.17835 3.00071 3.80529
thorax -1.38561 1.49317 5.01194
lowerneck -21.2201 8.95544 -1.81626
upperneck 29.1784 12.7692 2.02179
head 13.0098 5.60221 3.22813
rclavicle 5.96354e-015 -2.8625e-014
rhumerus -23.3473 -20.6376 -63.1893
rradius 58.4056
rwrist 23.0863
rhand -30.0682 -8.0029
rfingers 7.12502
rthumb -3.38328 -37.9558
lclavicle 5.96354e-015 -2.8625e-014
lhumerus -20.8994 -43.0339 102.449
lradius 65.26
lwrist 0.381731
lhand -12.9888 27.9914
lfingers 7.12502
lthumb 13.104 1137.56
rfemur -26.353 -13.9951 8.83949
rtibia 59.8178
rfoot -17.3049 -18.489
rtoes 22.864
lfemur -7.35105 1.94119 -27.7692
ltibia 20.9806
lfoot -13.0992 -3.83366
ltoes -6.16994
3993
root 6.95589 17.7516 1.44659 -196.331 253.534 -160.142
lowerback 4.11 2.0351 -2.50239
upperback 1.14321 2.62651 4.11724
thorax -1.43428 1.30724 5.52676
lowerneck -20.8279 9.07457 -2.64921
upperneck 28.8649 13.1789 2.115
head 12.7142 5.73098 3.40725
rclavicle 1.19271e-015 -7.95139e-015
rhumerus -23.8155 -19.4108 -63.5591
rradius 57.9175
rwrist 23.0876
rhand -29.7828 -6.42279
rfingers 7.12502
rthumb -3.10775 -36.3799
lclavicle 1.19271e-015 -7.95139e-015
lhumerus -21.7733 -40.9876 102.852
lradius 64.4019
lwrist 0.442864
lhand -12.884 27.2084
lfingers 7.12502
lthumb 13.205 1136.77
rfemur -26.5955 -13.7716 8.71267
rtibia 59.9003
rfoot -15.9003 -17.7517
rtoes 14.7665
lfemur -7.13154 1.92623 -27.7145
ltibia 20.7866
lfoot -13.0569 -3.84177
ltoes -6.17445
3994
root 6.93887 17.7567 1.46316 -195.635 253.476 -160.942
lowerback 4.12209 1.82366 -2.58538
upperback 1.12007 2.34083 4.33547
thorax -1.44448 1.16395 5.8213
lowerneck -20.2248 8.98579 -3.57265
upperneck 28.2499 13.2355 2.35134
head 12.2491 5.73801 3.56338
rclavicle -1.31198e-014 4.77083e-015
rhumerus -24.4172 -18.5725 -63.7997
rradius 57.3515
rwrist 23.5613
rhand -28.8336 -4.86123
rfingers 7.12502
rthumb -2.19096 -34.8297
lclavicle -1.31198e-014 4.77083e-015
lhumerus -22.5881 -39.2405 103.127
lradius 63.3943
lwrist 0.354425
lhand -11.2186 25.6404
lfingers 7.12502
lthumb 14.8099 1135.09
rfemur -26.7389 -13.5373 8.73737
rtibia 59.7885
rfoot -14.7977 -16.8709
rtoes 13.4749
lfemur -6.9018 1.97555 -27.5205
ltibia 20.6265
lfoot -13.054 -4.01021
ltoes -6.15069
